<svg version="1.2" xmlns="http://www.w3.org/2000/svg" viewBox="0 0 512 512" width="512" height="512"><defs><linearGradient id="P" gradientUnits="userSpaceOnUse"/><linearGradient id="g1" x2="1" href="#P" gradientTransform="matrix(0,-510.094,510.094,0,256,511.047)"><stop stop-color="#00c0ff"/><stop offset="1" stop-color="#5558ff"/></linearGradient></defs><style>.a{fill:url(#g1)}</style><path fill-rule="evenodd" class="a" d="m511 46v75h-510v-75c0-24.9 20.1-45 45-45h420c24.9 0 45 20.1 45 45zm-180 15c0-8.3-6.7-15-15-15-8.3 0-15 6.7-15 15 0 8.3 6.7 15 15 15 8.3 0 15-6.7 15-15zm60 0c0-8.3-6.7-15-15-15-8.3 0-15 6.7-15 15 0 8.3 6.7 15 15 15 8.3 0 15-6.7 15-15zm60 0c0-8.3-6.7-15-15-15-8.3 0-15 6.7-15 15 0 8.3 6.7 15 15 15 8.3 0 15-6.7 15-15zm-450 90h510v345c0 8.3-6.7 15-15 15h-480c-8.3 0-15-6.7-15-15zm60 306.2c0 4.9 3.9 8.9 8.8 8.9h132.3c4.9 0 8.9-4 8.9-8.9v-72.2c0-4.9-4-8.9-8.9-8.9h-132.3c-4.9 0-8.8 4-8.8 8.9zm0-126.2c0 8.3 6.7 15 15 15h360c7 0 15-6.3 15-15v-120c0-8.3-6.7-15-15-15h-360c-7.7 0-15 6.9-15 15 0 0 0 120 0 120zm210 120c0-8.2-6.7-15-15-15-8.3 0-15 6.8-15 15 0 8.3 6.7 15.1 15 15.1 8.3 0 15-6.8 15-15.1zm0-60c0-8.3-6.7-15-15-15-8.3 0-15 6.7-15 15 0 8.3 6.7 15 15 15 8.3 0 15-6.7 15-15zm180 60c0-8.2-6.7-15-15-15h-120c-8.3 0-15 6.8-15 15 0 8.3 6.7 15.1 15 15.1h120c8.3 0 15-6.8 15-15.1zm0-60c0-8.3-6.7-15-15-15h-120c-8.3 0-15 6.7-15 15 0 8.3 6.7 15 15 15h120c8.3 0 15-6.7 15-15zm-30-80.8l-252.6-84.2h252.6zm-330 95.8h90v30h-90zm252.6-90h-252.6v-84.2z"/></svg>